<svg width="64" height="64" fill="none" xmlns="http://www.w3.org/2000/svg"><path fill-rule="evenodd" clip-rule="evenodd" d="M32 64c17.673 0 32-14.327 32-32C64 14.327 49.673 0 32 0 14.327 0 0 14.327 0 32c0 17.673 14.327 32 32 32Z" fill="#E6F0FC"/><path d="M16 12h32a3 3 0 0 1 3 3v26a3 3 0 0 1-3 3H16a3 3 0 0 1-3-3V15a3 3 0 0 1 3-3Z" fill="#154E84"/><path d="M16 14a1 1 0 0 0-1 1v26a1 1 0 0 0 1 1h32a1 1 0 0 0 1-1V15a1 1 0 0 0-1-1H16Z" fill="#fff"/><path d="M11 39a1 1 0 0 1 1-1h40a1 1 0 0 1 1 1v2a3 3 0 0 1-3 3H14a3 3 0 0 1-3-3v-2Z" fill="#154E84"/><path d="M13 40v1a1 1 0 0 0 1 1h36a1 1 0 0 0 1-1v-1H13Z" fill="#52ABE2"/><path d="M14 12h36a3 3 0 0 1 3 3v2a1 1 0 0 1-1 1H12a1 1 0 0 1-1-1v-2a3 3 0 0 1 3-3Z" fill="#154E84"/><path d="M51 16v-1a1 1 0 0 0-1-1H14a1 1 0 0 0-1 1v1h38Z" fill="#52ABE2"/><path d="M32 42a1 1 0 0 1 .894 1.447l-4 8A1 1 0 0 1 28 52h-4a1 1 0 0 1-.894-1.447l4-8A1 1 0 0 1 28 42h4Z" fill="#154E84"/><path d="m28.618 44-3 6h1.764l3-6h-1.764Z" fill="#FFC200"/><path d="M32 42a1 1 0 0 0-.894 1.447l4 8A1 1 0 0 0 36 52h4a1 1 0 0 0 .894-1.447l-4-8A1 1 0 0 0 36 42h-4Z" fill="#154E84"/><path d="m35.382 44 3 6h-1.764l-3-6h1.764Z" fill="#FFC200"/><path d="M32.375 31.78a1 1 0 0 0 1.25 0l10-8a1 1 0 1 0-1.25-1.56L33 29.72l-4.375-3.5a1 1 0 0 0-1.225-.02l-8 6a1 1 0 1 0 1.2 1.6l7.38-5.535 4.395 3.516Z" fill="#154E84"/><path d="M42 24v4a1 1 0 1 0 2 0v-5a1 1 0 0 0-1-1h-5a1 1 0 1 0 0 2h4Z" fill="#154E84"/></svg>