<svg width="40" height="40" fill="none" xmlns="http://www.w3.org/2000/svg"><rect opacity=".1" width="40" height="40" rx="20" fill="#5A7184"/><path d="M20.333 16.74c-2 0-3.593 1.625-3.593 3.593 0 2 1.593 3.594 3.593 3.594a3.594 3.594 0 0 0 3.594-3.594c0-1.968-1.625-3.593-3.594-3.593Zm0 5.937a2.34 2.34 0 0 1-2.343-2.344c0-1.281 1.03-2.312 2.343-2.312a2.307 2.307 0 0 1 2.313 2.312c0 1.313-1.031 2.344-2.313 2.344Zm4.563-6.063a.84.84 0 0 0-.844-.843.84.84 0 0 0-.844.843.84.84 0 0 0 .844.844.84.84 0 0 0 .844-.843Zm2.375.844c-.063-1.125-.313-2.125-1.125-2.937-.813-.813-1.813-1.063-2.938-1.125-1.156-.063-4.625-.063-5.78 0-1.126.062-2.095.312-2.938 1.125-.813.812-1.063 1.812-1.125 2.937-.063 1.157-.063 4.625 0 5.782.062 1.125.312 2.093 1.125 2.937.843.813 1.812 1.063 2.937 1.125 1.156.063 4.625.063 5.781 0 1.125-.063 2.125-.313 2.938-1.125.812-.844 1.062-1.813 1.125-2.938.062-1.156.062-4.625 0-5.78Zm-1.5 7c-.219.625-.719 1.094-1.313 1.344-.937.375-3.125.281-4.125.281-1.03 0-3.218.094-4.125-.281a2.37 2.37 0 0 1-1.343-1.344c-.375-.906-.282-3.093-.282-4.125 0-1-.093-3.187.282-4.125a2.41 2.41 0 0 1 1.343-1.312c.907-.375 3.094-.282 4.125-.282 1 0 3.188-.093 4.125.282.594.218 1.063.718 1.313 1.312.375.938.281 3.125.281 4.125 0 1.032.094 3.219-.281 4.125Z" fill="#5A7184"/></svg>