<svg width="88" height="88" fill="none" xmlns="http://www.w3.org/2000/svg"><rect x="16" y="4" width="56" height="56" rx="28" fill="#000" fill-opacity=".01"/><g filter="url(#a)"><rect x="16" y="4" width="56" height="56" rx="28" fill="#fff"/></g><path d="M42.938 27.094c-.313.312-.282.781 0 1.093l3.78 3.563H37.75a.74.74 0 0 0-.75.75v1c0 .438.313.75.75.75h8.969l-3.782 3.594a.814.814 0 0 0 0 1.093l.688.688c.313.281.781.281 1.063 0l6.093-6.094c.282-.281.282-.75 0-1.062l-6.093-6.063c-.282-.281-.75-.281-1.063 0l-.688.688Z" fill="#183B56"/><defs><filter id="a" x="0" y="0" width="88" height="88" filterUnits="userSpaceOnUse" color-interpolation-filters="sRGB"><feFlood flood-opacity="0" result="BackgroundImageFix"/><feColorMatrix in="SourceAlpha" values="0 0 0 0 0 0 0 0 0 0 0 0 0 0 0 0 0 0 127 0" result="hardAlpha"/><feOffset dy="12"/><feGaussianBlur stdDeviation="8"/><feColorMatrix values="0 0 0 0 0 0 0 0 0 0 0 0 0 0 0 0 0 0 0.08 0"/><feBlend in2="BackgroundImageFix" result="effect1_dropShadow_1:1125"/><feBlend in="SourceGraphic" in2="effect1_dropShadow_1:1125" result="shape"/></filter></defs></svg>