<svg width="88" height="88" fill="none" xmlns="http://www.w3.org/2000/svg"><rect x="72" y="60" width="56" height="56" rx="28" transform="rotate(-180 72 60)" fill="#000" fill-opacity=".01"/><g filter="url(#a)"><rect x="72" y="60" width="56" height="56" rx="28" transform="rotate(-180 72 60)" fill="#fff"/></g><path d="M45.063 36.906c.312-.312.28-.781 0-1.093L41.28 32.25h8.969a.74.74 0 0 0 .75-.75v-1a.722.722 0 0 0-.75-.75h-8.969l3.782-3.594a.814.814 0 0 0 0-1.093l-.688-.688c-.313-.281-.781-.281-1.063 0l-6.093 6.094c-.282.281-.282.75 0 1.062l6.093 6.063c.282.281.75.281 1.063 0l.688-.688Z" fill="#183B56"/><defs><filter id="a" x="0" y="0" width="88" height="88" filterUnits="userSpaceOnUse" color-interpolation-filters="sRGB"><feFlood flood-opacity="0" result="BackgroundImageFix"/><feColorMatrix in="SourceAlpha" values="0 0 0 0 0 0 0 0 0 0 0 0 0 0 0 0 0 0 127 0" result="hardAlpha"/><feOffset dy="12"/><feGaussianBlur stdDeviation="8"/><feColorMatrix values="0 0 0 0 0 0 0 0 0 0 0 0 0 0 0 0 0 0 0.08 0"/><feBlend in2="BackgroundImageFix" result="effect1_dropShadow_832:2"/><feBlend in="SourceGraphic" in2="effect1_dropShadow_832:2" result="shape"/></filter></defs></svg>