<svg width="42" height="40" fill="none" xmlns="http://www.w3.org/2000/svg"><rect opacity=".1" width="42" height="40" rx="20" fill="#5A7184"/><path d="M27.677 17.083a6.952 6.952 0 0 0 1.625-1.687 6.15 6.15 0 0 1-1.875.5 3.206 3.206 0 0 0 1.438-1.813 6.932 6.932 0 0 1-2.063.813 3.281 3.281 0 0 0-2.406-1.032 3.28 3.28 0 0 0-3.281 3.282c0 .25.03.5.093.75a9.52 9.52 0 0 1-6.78-3.438 3.191 3.191 0 0 0-.438 1.656c0 1.125.562 2.125 1.468 2.72-.53-.032-1.062-.157-1.5-.407v.031a3.285 3.285 0 0 0 2.625 3.219c-.25.063-.562.125-.843.125-.22 0-.407-.031-.625-.063a3.265 3.265 0 0 0 3.062 2.282 6.597 6.597 0 0 1-4.062 1.406c-.282 0-.532-.031-.782-.063 1.438.938 3.157 1.47 5.032 1.47 6.03 0 9.312-4.97 9.312-9.313v-.438Z" fill="#5A7184"/></svg>